Coordinates
version=1
nRows=17
nColumns=36
inDegrees=yes

Units are S.I. units (second, meters, Newtons, ...)
If the header above contains a line with 'inDegrees', this indicates whether rotational values are in degrees (yes) or radians (no).

endheader
time	pelvis_tilt	pelvis_list	pelvis_rotation	pelvis_tx	pelvis_ty	pelvis_tz	hip_flexion_r	hip_adduction_r	hip_rotation_r	knee_angle_r	knee_angle_r_beta	ankle_angle_r	subtalar_angle_r	mtp_angle_r	hip_flexion_l	hip_adduction_l	hip_rotation_l	knee_angle_l	knee_angle_l_beta	ankle_angle_l	subtalar_angle_l	mtp_angle_l	lumbar_extension	lumbar_bending	lumbar_rotation	arm_flex_r	arm_add_r	arm_rot_r	elbow_flex_r	pro_sup_r	arm_flex_l	arm_add_l	arm_rot_l	elbow_flex_l	pro_sup_l
      0.34000000	      0.78828227	     -3.61933462	     -0.02132816	      0.29163755	      0.94045648	     -0.22607883	     -2.79902909	      9.87173906	      0.89616909	      5.60136339	      0.09776223	      8.13072360	     -7.49462614	     -6.98550520	     28.28256033	     -2.07523348	      6.59653108	     56.80423489	      0.99142093	     -3.59452962	    -21.23985011	     -6.98550520	     -6.97250318	      4.80786235	      1.05698360	      3.09919066	     -8.54704815	     -8.59213624	     44.62664447	    100.01323531	     -9.60968872	     -1.00068443	    -23.01418631	     34.54891022	    100.24232739
      0.35000000	      0.73502154	     -3.39792870	     -0.21117320	      0.30248627	      0.94013129	     -0.22550103	     -3.80021669	      9.64535296	      1.15019008	      5.05907282	      0.08829748	      8.44846728	     -7.30235836	     -6.99123692	     28.97756087	     -1.78841773	      6.60507586	     53.73766349	      0.93789916	     -3.26016913	    -21.15369753	     -6.99123692	     -6.98439809	      4.56557976	      1.36680214	      3.92377180	     -8.72737162	     -8.32836235	     45.49570247	    100.04969723	    -10.29878813	     -0.94832213	    -23.32598473	     34.15253910	    100.15886735
      0.36000000	      0.74223978	     -3.25396256	     -0.37798911	      0.31347915	      0.93967724	     -0.22497311	     -4.90842220	      9.49603440	      1.36187232	      4.46339394	      0.07790092	      8.79919415	     -7.01917689	     -6.99644862	     29.46257551	     -1.58980552	      6.66481543	     50.41785018	      0.87995749	     -3.01303779	    -20.93247588	     -6.99644862	     -7.03578404	      4.40635100	      1.68128727	      4.66952072	     -8.94560009	     -7.99209170	     46.41636180	    100.11532169	    -10.93842244	     -0.85159456	    -23.72195752	     33.76798424	    100.05721877
      0.37000000	      0.78193579	     -3.12046679	     -0.53421858	      0.32456026	      0.93905682	     -0.22451098	     -6.08167981	      9.34003774	      1.53012940	      3.81866320	      0.06664825	      9.19738971	     -6.63104257	     -7.00187852	     29.78679161	     -1.40621368	      6.73831135	     46.89741986	      0.81851439	     -2.81675587	    -20.49442790	     -7.00187852	     -7.13691273	      4.28029115	      1.97886735	      5.36733142	     -9.19131405	     -7.57891390	     47.38279730	    100.20650223	    -11.53855150	     -0.73977029	    -24.18891905	     33.37995336	     99.93654280
      0.38000000	      0.78056364	     -3.07982226	     -0.67950930	      0.33573101	      0.93812312	     -0.22409006	     -7.19550468	      9.27256159	      1.61920107	      3.22608149	      0.05630574	      9.61612237	     -6.18363337	     -7.00692879	     30.06178808	     -1.32733969	      6.86893403	     43.26121023	      0.75505056	     -2.65411000	    -19.80508492	     -7.00692879	     -7.16634326	      4.27172055	      2.25109126	      6.03301100	     -9.45302726	     -7.16876457	     48.32034851	    100.30978581	    -12.12291415	     -0.61231894	    -24.64798977	     33.00845113	     99.81466022
      0.39000000	      0.93365576	     -3.01254860	     -0.81834661	      0.34715553	      0.93716870	     -0.22364036	     -8.51516022	      9.16420798	      1.56473190	      2.58814441	      0.04517164	     10.26529017	     -5.43737993	     -7.01543388	     30.03878431	     -1.27140360	      6.85653515	     39.48247742	      0.68909923	     -2.41817014	    -18.58896003	     -7.01543388	     -7.37117635	      4.19388740	      2.53919092	      6.60167301	     -9.77721331	     -6.59734065	     49.33111488	    100.38984529	    -12.64780820	     -0.47959828	    -25.28501002	     32.58263228	     99.58685389
      0.40000000	      1.05175792	     -3.08561716	     -0.97667730	      0.35850540	      0.93589370	     -0.22325386	     -9.67182009	      9.17724277	      1.38404444	      2.22485747	      0.03883109	     11.12531825	     -4.17163115	     -7.03023204	     29.98765154	     -1.37288271	      6.90967732	     35.70599212	      0.62318713	     -1.83385674	    -16.73404727	     -7.03023204	     -7.56120901	      4.30247244	      2.78192017	      7.25297461	    -10.11649748	     -5.98770230	     50.28825375	    100.49715260	    -13.13941334	     -0.25720889	    -26.09302733	     32.24089509	     99.31268181
      0.41000000	      1.02497641	     -3.15729417	     -1.11838703	      0.37006243	      0.93419999	     -0.22287065	    -10.65218847	      9.18913779	      1.11484167	      1.91508594	      0.03342456	     12.02420458	     -2.96365204	     -7.04789490	     30.01384941	     -1.48398879	      6.91601428	     31.93374568	      0.55734900	     -1.25842470	    -14.51396199	     -7.04789490	     -7.53711585	      4.39946423	      3.00252577	      7.78916836	    -10.39643958	     -5.50464113	     51.16019386	    100.58610292	    -13.68836587	     -0.08776349	    -26.76656603	     31.89641648	     99.05914509
      0.42000000	      0.87273041	     -3.24212997	     -1.24790997	      0.38166458	      0.93218953	     -0.22259452	    -11.46718757	      9.21979266	      1.04824401	      1.66388114	      0.02904020	     12.63037876	     -2.44103810	     -7.05570531	     30.08875740	     -1.57562909	      6.97358460	     28.13720996	      0.49108696	     -1.23987391	    -12.65492774	     -7.05570531	     -7.35862252	      4.53121082	      3.27788617	      8.23405272	    -10.68605192	     -5.19198390	     51.97062294	    100.62333591	    -14.19311907	      0.02926807	    -27.10228832	     31.51165620	     98.90571857
      0.43000000	      0.92341644	     -3.37993393	     -1.44572407	      0.39345893	      0.93020882	     -0.22223492	    -12.42516990	      9.25567704	      0.68932654	      1.60184222	      0.02795742	     13.70601762	     -0.82087984	     -7.07870413	     29.92271559	     -1.86259550	      6.49828074	     24.58512842	      0.42909144	     -0.07316244	     -9.30042914	     -7.07870413	     -7.44635953	      4.72344250	      3.60521462	      8.65272207	    -10.99957229	     -4.81112499	     52.91522625	    100.67088448	    -14.61478264	      0.18666206	    -27.68486780	     31.03549542	     98.68965121
      0.44000000	      0.91946888	     -3.46580656	     -1.65713433	      0.40530411	      0.92813609	     -0.22193237	    -13.33569428	      9.24576137	      0.64435277	      1.50002869	      0.02618044	     14.30404901	     -0.32208882	     -7.08840030	     29.68058122	     -2.03593819	      6.03913796	     20.98158032	      0.36619766	      0.04023735	     -7.12320695	     -7.08840030	     -7.45536890	      4.85015969	      3.97188657	      9.01881735	    -11.28182255	     -4.49465312	     53.70275773	    100.68697735	    -15.00433832	      0.26797862	    -27.98012610	     30.53247599	     98.55601367
      0.45000000	      0.70611103	     -3.57201886	     -1.92104867	      0.41721797	      0.92575086	     -0.22163231	    -13.97311330	      9.23699662	      0.82961083	      1.51875213	      0.02650723	     14.70010118	      0.13170439	     -7.09325409	     29.59387526	     -2.20917782	      5.58113811	     17.52087832	      0.30579701	      0.27622162	     -5.27508422	     -7.09325409	     -7.23850666	      4.99770463	      4.27484787	      9.36029928	    -11.48682844	     -4.26126471	     54.39913584	    100.69086934	    -15.47335362	      0.37519249	    -28.19673778	     30.08828448	     98.44709751
      0.46000000	      0.73280535	     -3.56902934	     -2.21929021	      0.42939349	      0.92368598	     -0.22129279	    -14.86307297	      9.08298580	      0.88304431	      1.55896528	      0.02720908	     15.20182038	      0.67592446	     -7.09814570	     29.13768083	     -2.30712229	      4.69263720	     14.21799401	      0.24815081	      0.69618746	     -3.02581394	     -7.09814570	     -7.25908145	      4.99874506	      4.70470812	      9.58837587	    -11.72716639	     -3.97218597	     55.07861112	    100.70269215	    -15.81642708	      0.39857843	    -28.47304242	     29.49864412	     98.33170022
      0.47000000	      1.12138114	     -3.54676154	     -2.51609333	      0.44200892	      0.92197930	     -0.22087836	    -16.12894100	      8.84978385	      0.22017898	      1.66077019	      0.02898591	     16.37791037	      2.64573583	     -7.11941614	     28.54113261	     -2.52275855	      2.23225658	     11.82843290	      0.20644510	      2.83099230	      2.19203315	     -7.11941614	     -7.68161030	      4.94806240	      5.32725589	      9.62813142	    -12.00245172	     -3.87837610	     55.88515700	    100.67590222	    -15.91860794	      0.37770988	    -28.81852025	     28.72550640	     98.27759674
      0.48000000	      1.27732068	     -3.42088266	     -2.84787304	      0.45454375	      0.92014381	     -0.22061817	    -17.11142977	      8.50614903	      0.11233995	      1.80441950	      0.03149306	     16.82870394	      3.37290570	     -7.13370551	     27.91824065	     -2.42150102	      0.74474108	      9.25951467	      0.16160902	      3.43364994	      4.35601778	     -7.13370551	     -7.84148213	      4.79801060	      5.76043415	      9.75099963	    -12.16294331	     -3.71678964	     56.44748510	    100.66680559	    -16.14788255	      0.37159736	    -29.04150826	     28.12276297	     98.23299267
      0.49000000	      1.18722906	     -3.27793375	     -3.18460477	      0.46720340	      0.91807484	     -0.22051274	    -17.77878250	      8.13847536	      0.19725273	      2.06600369	      0.03605857	     16.96960179	      3.66575667	     -7.13765184	     27.50847186	     -2.19796996	     -0.20642374	      7.08274980	      0.12361730	      3.93179712	      5.26189769	     -7.13765184	     -7.67328805	      4.63619611	      6.13996386	      9.79824840	    -12.26812878	     -3.57693639	     56.74950830	    100.65836506	    -16.48798574	      0.40758233	    -29.20270755	     27.71715001	     98.16239782
      0.50000000	      1.60638421	     -3.03538229	     -3.49192131	      0.48017525	      0.91672648	     -0.22040836	    -19.03244509	      7.62523521	     -0.10878982	      2.22848759	      0.03889445	     17.36141776	      4.38261984	     -7.14465955	     26.52192664	     -1.86655603	     -1.54180808	      5.35501293	      0.09346261	      4.41581244	      6.75763291	     -7.14465955	     -8.10650249	      4.30065349	      6.66990026	      9.72410040	    -12.45468499	     -3.45885895	     57.10168007	    100.65147961	    -16.53220229	      0.37491645	    -29.46755838	     27.10864603	     98.07441692
